<?xml version="1.0" encoding="utf-8"?>
<!-- Generator: Adobe Illustrator 23.0.2, SVG Export Plug-In . SVG Version: 6.00 Build 0)  -->
<svg version="1.1" id="图层_1" xmlns="http://www.w3.org/2000/svg" xmlns:xlink="http://www.w3.org/1999/xlink" x="0px" y="0px"
	 viewBox="0 0 130 150" style="enable-background:new 0 0 130 150;" xml:space="preserve">
<style type="text/css">
	.st0{fill:#FFFFFF;}
	.st1{fill:none;}
	.st2{fill:none;stroke:#FFFFFF;stroke-miterlimit:10;}
</style>
<path class="st0" d="M117.3,83c0,0-11.7-1.2-37.8,8.7s-50.6-3-54.8-19.1c0,0,10.3,13.4,34.7,11S87,77.2,117.3,83z"/>
<g>
	<g>
		<path class="st0" d="M52.7,25.4c0,0-10.6,41.3-20.7,51.7c0,0,28.8,6.6,59.7-4.7c0,0-20.1-45.5-27.1-66.4L64,51.5L61,72.9
			c0,0-1.1,1.6-3-10.8C55.9,48.8,52.7,25.4,52.7,25.4L52.7,25.4z"/>
	</g>
</g>
<g>
	<path class="st1" d="M87.7,118.7c0,0,18.7-12.3,18.7-32.2H24.8c1,7,3.8,14.8,9.9,22.6C34.8,109.1,54.4,136.8,87.7,118.7z"/>
	<path class="st0" d="M106.4,86.5c0,19.9-18.7,32.2-18.7,32.2c-33.2,18.1-52.9-9.6-52.9-9.6c-6.1-7.8-8.9-15.6-9.9-22.6h-18
		c0.2,19.8,9.8,33.5,19,43.1c13,13.6,45.5,24.5,75.8,4.3c20.2-13.4,24.1-34.6,24.5-47.3H106.4z"/>
</g>
<line class="st2" x1="54.4" y1="100.5" x2="74.1" y2="100.5"/>
<line class="st2" x1="60.8" y1="106.4" x2="80.5" y2="106.4"/>
<line class="st2" x1="48.3" y1="112.7" x2="68" y2="112.7"/>
</svg>
